<mxfile host="app.diagrams.net" agent="Mozilla/5.0 (X11; Ubuntu; Linux x86_64; rv:144.0) Gecko/20100101 Firefox/144.0" version="28.2.8">
  <diagram name="Page-1" id="Xi-TPpQMlQznl_CKk4ta">
    <mxGraphModel dx="1245" dy="806" grid="1" gridSize="10" guides="1" tooltips="1" connect="1" arrows="1" fold="1" page="1" pageScale="1" pageWidth="850" pageHeight="1100" math="0" shadow="0">
      <root>
        <mxCell id="0" />
        <mxCell id="1" parent="0" />
        <mxCell id="uSJFlp9kellmqnF6l5aU-41" style="edgeStyle=orthogonalEdgeStyle;rounded=0;orthogonalLoop=1;jettySize=auto;html=1;" parent="1" edge="1">
          <mxGeometry relative="1" as="geometry">
            <mxPoint x="100.5" y="127" as="sourcePoint" />
            <mxPoint x="419.5" y="127" as="targetPoint" />
          </mxGeometry>
        </mxCell>
        <mxCell id="uSJFlp9kellmqnF6l5aU-43" value="&lt;font style=&quot;font-size: 23px;&quot;&gt;Node A&lt;/font&gt;" style="rounded=0;whiteSpace=wrap;html=1;" parent="1" vertex="1">
          <mxGeometry x="360" y="40" width="120" height="50" as="geometry" />
        </mxCell>
        <mxCell id="uSJFlp9kellmqnF6l5aU-46" value="&lt;font style=&quot;font-size: 23px;&quot;&gt;Node B&lt;/font&gt;" style="rounded=0;whiteSpace=wrap;html=1;" parent="1" vertex="1">
          <mxGeometry x="678" y="40" width="120" height="50" as="geometry" />
        </mxCell>
        <mxCell id="uSJFlp9kellmqnF6l5aU-51" style="edgeStyle=orthogonalEdgeStyle;rounded=0;orthogonalLoop=1;jettySize=auto;html=1;entryX=0;entryY=0.75;entryDx=0;entryDy=0;dashed=1;dashPattern=8 8;endArrow=none;endFill=0;startArrow=classic;startFill=1;" parent="1" edge="1">
          <mxGeometry relative="1" as="geometry">
            <mxPoint x="420" y="300" as="sourcePoint" />
            <mxPoint x="745" y="300" as="targetPoint" />
          </mxGeometry>
        </mxCell>
        <mxCell id="uSJFlp9kellmqnF6l5aU-52" style="edgeStyle=orthogonalEdgeStyle;rounded=0;orthogonalLoop=1;jettySize=auto;html=1;startArrow=classic;startFill=1;endArrow=none;endFill=0;" parent="1" edge="1">
          <mxGeometry relative="1" as="geometry">
            <mxPoint x="739" y="159" as="sourcePoint" />
            <mxPoint x="420" y="159" as="targetPoint" />
          </mxGeometry>
        </mxCell>
        <mxCell id="uSJFlp9kellmqnF6l5aU-55" value="" style="endArrow=none;html=1;rounded=0;entryX=0.5;entryY=1;entryDx=0;entryDy=0;" parent="1" target="uSJFlp9kellmqnF6l5aU-43" edge="1">
          <mxGeometry width="50" height="50" relative="1" as="geometry">
            <mxPoint x="420" y="350" as="sourcePoint" />
            <mxPoint x="650" y="400" as="targetPoint" />
          </mxGeometry>
        </mxCell>
        <mxCell id="uSJFlp9kellmqnF6l5aU-56" value="" style="endArrow=none;html=1;rounded=0;entryX=0.5;entryY=1;entryDx=0;entryDy=0;" parent="1" edge="1">
          <mxGeometry width="50" height="50" relative="1" as="geometry">
            <mxPoint x="738" y="350" as="sourcePoint" />
            <mxPoint x="737.5" y="90" as="targetPoint" />
          </mxGeometry>
        </mxCell>
        <mxCell id="uSJFlp9kellmqnF6l5aU-57" style="edgeStyle=orthogonalEdgeStyle;rounded=0;orthogonalLoop=1;jettySize=auto;html=1;" parent="1" edge="1">
          <mxGeometry relative="1" as="geometry">
            <mxPoint x="739" y="170" as="sourcePoint" />
            <mxPoint x="739" y="200" as="targetPoint" />
            <Array as="points">
              <mxPoint x="799" y="170" />
              <mxPoint x="799" y="200" />
            </Array>
          </mxGeometry>
        </mxCell>
        <mxCell id="uSJFlp9kellmqnF6l5aU-58" value="create network user for client in DB" style="text;html=1;whiteSpace=wrap;strokeColor=none;fillColor=none;align=center;verticalAlign=middle;rounded=0;" parent="1" vertex="1">
          <mxGeometry x="798" y="170" width="112" height="30" as="geometry" />
        </mxCell>
        <mxCell id="uSJFlp9kellmqnF6l5aU-59" style="edgeStyle=orthogonalEdgeStyle;rounded=0;orthogonalLoop=1;jettySize=auto;html=1;" parent="1" edge="1">
          <mxGeometry relative="1" as="geometry">
            <mxPoint x="739" y="254" as="sourcePoint" />
            <mxPoint x="739" y="284" as="targetPoint" />
            <Array as="points">
              <mxPoint x="799" y="254" />
              <mxPoint x="799" y="284" />
            </Array>
          </mxGeometry>
        </mxCell>
        <mxCell id="uSJFlp9kellmqnF6l5aU-60" value="create token for network user in DB" style="text;html=1;whiteSpace=wrap;strokeColor=none;fillColor=none;align=center;verticalAlign=middle;rounded=0;" parent="1" vertex="1">
          <mxGeometry x="804" y="254" width="116" height="30" as="geometry" />
        </mxCell>
        <mxCell id="uSJFlp9kellmqnF6l5aU-65" value="&lt;font style=&quot;font-size: 23px;&quot;&gt;Client&lt;/font&gt;" style="rounded=0;whiteSpace=wrap;html=1;" parent="1" vertex="1">
          <mxGeometry x="40" y="40" width="120" height="50" as="geometry" />
        </mxCell>
        <mxCell id="uSJFlp9kellmqnF6l5aU-67" value="Request an access token for Node B" style="text;html=1;whiteSpace=wrap;strokeColor=none;fillColor=none;align=center;verticalAlign=middle;rounded=0;" parent="1" vertex="1">
          <mxGeometry x="160" y="100" width="200" height="30" as="geometry" />
        </mxCell>
        <mxCell id="uSJFlp9kellmqnF6l5aU-68" value="Request an access token on behalf of the client" style="text;html=1;whiteSpace=wrap;strokeColor=none;fillColor=none;align=center;verticalAlign=middle;rounded=0;" parent="1" vertex="1">
          <mxGeometry x="448" y="130" width="260" height="30" as="geometry" />
        </mxCell>
        <mxCell id="uSJFlp9kellmqnF6l5aU-69" value="Response including token" style="text;html=1;whiteSpace=wrap;strokeColor=none;fillColor=none;align=center;verticalAlign=middle;rounded=0;" parent="1" vertex="1">
          <mxGeometry x="500" y="273" width="140" height="30" as="geometry" />
        </mxCell>
        <mxCell id="uSJFlp9kellmqnF6l5aU-71" style="edgeStyle=orthogonalEdgeStyle;rounded=0;orthogonalLoop=1;jettySize=auto;html=1;" parent="1" edge="1">
          <mxGeometry relative="1" as="geometry">
            <mxPoint x="739" y="210" as="sourcePoint" />
            <mxPoint x="739" y="240" as="targetPoint" />
            <Array as="points">
              <mxPoint x="799" y="210" />
              <mxPoint x="799" y="240" />
            </Array>
          </mxGeometry>
        </mxCell>
        <mxCell id="uSJFlp9kellmqnF6l5aU-72" value="associate network user with user in DB" style="text;html=1;whiteSpace=wrap;strokeColor=none;fillColor=none;align=center;verticalAlign=middle;rounded=0;" parent="1" vertex="1">
          <mxGeometry x="802" y="210" width="112" height="30" as="geometry" />
        </mxCell>
        <mxCell id="uSJFlp9kellmqnF6l5aU-73" style="edgeStyle=orthogonalEdgeStyle;rounded=0;orthogonalLoop=1;jettySize=auto;html=1;entryX=0;entryY=0.75;entryDx=0;entryDy=0;dashed=1;dashPattern=8 8;endArrow=none;endFill=0;startArrow=classic;startFill=1;" parent="1" edge="1">
          <mxGeometry relative="1" as="geometry">
            <mxPoint x="100.5" y="330" as="sourcePoint" />
            <mxPoint x="425.5" y="330" as="targetPoint" />
          </mxGeometry>
        </mxCell>
        <mxCell id="uSJFlp9kellmqnF6l5aU-74" value="Response including token" style="text;html=1;whiteSpace=wrap;strokeColor=none;fillColor=none;align=center;verticalAlign=middle;rounded=0;" parent="1" vertex="1">
          <mxGeometry x="177.5" y="303" width="140" height="30" as="geometry" />
        </mxCell>
        <mxCell id="uSJFlp9kellmqnF6l5aU-75" value="" style="endArrow=none;html=1;rounded=0;entryX=0.5;entryY=1;entryDx=0;entryDy=0;" parent="1" edge="1">
          <mxGeometry width="50" height="50" relative="1" as="geometry">
            <mxPoint x="99.5" y="350" as="sourcePoint" />
            <mxPoint x="99.5" y="90" as="targetPoint" />
          </mxGeometry>
        </mxCell>
      </root>
    </mxGraphModel>
  </diagram>
</mxfile>
